<svg xmlns="http://www.w3.org/2000/svg" viewBox="0 0 800 600"><rect width="800" height="600" rx="40" fill="#f1f5f9"/><rect x="230" y="110" width="340" height="340" rx="130" fill="#fff" stroke="#cbd5e1" stroke-width="12"/><path d="M270 250c-65 10-75 100-10 116 56 13 74-25 68-74-4-32-18-47-58-42z" fill="#0f172a"/><path d="M530 250c65 10 75 100 10 116-56 13-74-25-68-74 4-32 18-47 58-42z" fill="#0f172a"/><rect x="300" y="185" width="200" height="140" rx="52" fill="#e2e8f0"/><circle cx="350" cy="255" r="20" fill="#8b5cf6"/><circle cx="450" cy="255" r="20" fill="#06b6d4"/><path d="M325 410c34 20 116 20 150 0" stroke="#94a3b8" stroke-width="16" stroke-linecap="round"/></svg>
